<mxfile host="app.diagrams.net" modified="2021-08-11T15:41:22.178Z" agent="5.0 (Windows NT 10.0; Win64; x64) AppleWebKit/537.36 (KHTML, like Gecko) Chrome/92.0.4515.131 Safari/537.36 Edg/92.0.902.67" etag="sutq9VbBib9eF8traJSa" version="14.9.6" type="github">
  <diagram id="pUPoVYKXmYZPgE-0Y4hJ" name="Page-1">
    <mxGraphModel dx="868" dy="516" grid="1" gridSize="10" guides="1" tooltips="1" connect="1" arrows="1" fold="1" page="1" pageScale="1" pageWidth="850" pageHeight="1100" math="0" shadow="0">
      <root>
        <mxCell id="0" />
        <mxCell id="1" parent="0" />
        <mxCell id="FTYc4txOeEdFTPNHwYB--14" value="Cliente" style="shape=umlActor;verticalLabelPosition=bottom;verticalAlign=top;html=1;outlineConnect=0;" vertex="1" parent="1">
          <mxGeometry x="80" y="270" width="30" height="60" as="geometry" />
        </mxCell>
        <mxCell id="FTYc4txOeEdFTPNHwYB--18" value="Loja - Simplificado" style="swimlane;verticalAlign=middle;startSize=23;" vertex="1" parent="1">
          <mxGeometry x="140" y="90" width="410" height="375" as="geometry">
            <mxRectangle x="120" y="150" width="130" height="23" as="alternateBounds" />
          </mxGeometry>
        </mxCell>
        <mxCell id="FTYc4txOeEdFTPNHwYB--19" value="Loja" style="ellipse;whiteSpace=wrap;html=1;" vertex="1" parent="FTYc4txOeEdFTPNHwYB--18">
          <mxGeometry x="60" y="110" width="90" height="50" as="geometry" />
        </mxCell>
        <mxCell id="FTYc4txOeEdFTPNHwYB--20" value="produtos" style="ellipse;whiteSpace=wrap;html=1;" vertex="1" parent="FTYc4txOeEdFTPNHwYB--18">
          <mxGeometry x="60" y="190" width="90" height="50" as="geometry" />
        </mxCell>
        <mxCell id="FTYc4txOeEdFTPNHwYB--21" value="Escolho&amp;nbsp;" style="ellipse;whiteSpace=wrap;html=1;" vertex="1" parent="FTYc4txOeEdFTPNHwYB--18">
          <mxGeometry x="60" y="270" width="90" height="50" as="geometry" />
        </mxCell>
        <mxCell id="FTYc4txOeEdFTPNHwYB--22" value="&lt;p style=&quot;line-height: 100%&quot;&gt;Registro compra&lt;/p&gt;" style="ellipse;whiteSpace=wrap;html=1;" vertex="1" parent="FTYc4txOeEdFTPNHwYB--18">
          <mxGeometry x="185" y="140" width="100" height="50" as="geometry" />
        </mxCell>
        <mxCell id="FTYc4txOeEdFTPNHwYB--30" value="&lt;p style=&quot;line-height: 100%&quot;&gt;Confirma&lt;/p&gt;" style="ellipse;whiteSpace=wrap;html=1;" vertex="1" parent="FTYc4txOeEdFTPNHwYB--18">
          <mxGeometry x="185" y="240" width="100" height="50" as="geometry" />
        </mxCell>
        <mxCell id="FTYc4txOeEdFTPNHwYB--33" value="" style="endArrow=classic;html=1;" edge="1" parent="FTYc4txOeEdFTPNHwYB--18">
          <mxGeometry width="50" height="50" relative="1" as="geometry">
            <mxPoint x="104" y="162" as="sourcePoint" />
            <mxPoint x="104" y="190" as="targetPoint" />
          </mxGeometry>
        </mxCell>
        <mxCell id="FTYc4txOeEdFTPNHwYB--39" value="" style="endArrow=classic;html=1;entryX=0.03;entryY=0.68;entryDx=0;entryDy=0;entryPerimeter=0;" edge="1" parent="FTYc4txOeEdFTPNHwYB--18" target="FTYc4txOeEdFTPNHwYB--22">
          <mxGeometry width="50" height="50" relative="1" as="geometry">
            <mxPoint x="150" y="210" as="sourcePoint" />
            <mxPoint x="180" y="180" as="targetPoint" />
          </mxGeometry>
        </mxCell>
        <mxCell id="FTYc4txOeEdFTPNHwYB--44" value="Fim" style="ellipse;whiteSpace=wrap;html=1;" vertex="1" parent="FTYc4txOeEdFTPNHwYB--18">
          <mxGeometry x="300" y="180" width="100" height="50" as="geometry" />
        </mxCell>
        <mxCell id="FTYc4txOeEdFTPNHwYB--46" value="" style="endArrow=classic;html=1;" edge="1" parent="FTYc4txOeEdFTPNHwYB--18">
          <mxGeometry width="50" height="50" relative="1" as="geometry">
            <mxPoint x="285" y="250" as="sourcePoint" />
            <mxPoint x="310" y="220" as="targetPoint" />
          </mxGeometry>
        </mxCell>
        <mxCell id="FTYc4txOeEdFTPNHwYB--32" value="" style="endArrow=classic;html=1;" edge="1" parent="1">
          <mxGeometry width="50" height="50" relative="1" as="geometry">
            <mxPoint x="110" y="290" as="sourcePoint" />
            <mxPoint x="210" y="240" as="targetPoint" />
          </mxGeometry>
        </mxCell>
        <mxCell id="FTYc4txOeEdFTPNHwYB--38" value="" style="endArrow=classic;startArrow=classic;html=1;entryX=0.444;entryY=1;entryDx=0;entryDy=0;entryPerimeter=0;" edge="1" parent="1" target="FTYc4txOeEdFTPNHwYB--20">
          <mxGeometry width="50" height="50" relative="1" as="geometry">
            <mxPoint x="240" y="360" as="sourcePoint" />
            <mxPoint x="290" y="310" as="targetPoint" />
          </mxGeometry>
        </mxCell>
        <mxCell id="FTYc4txOeEdFTPNHwYB--45" value="" style="endArrow=classic;html=1;" edge="1" parent="1">
          <mxGeometry width="50" height="50" relative="1" as="geometry">
            <mxPoint x="370" y="280" as="sourcePoint" />
            <mxPoint x="370" y="330" as="targetPoint" />
          </mxGeometry>
        </mxCell>
      </root>
    </mxGraphModel>
  </diagram>
</mxfile>
